HIERARCHY
ROOT Hips
{
	OFFSET -3.958830 18.904000 13.208200
	CHANNELS 6 Xposition Yposition Zposition Zrotation Yrotation Xrotation 
	JOINT LHipJoint
	{
		OFFSET 0.000000 0.000000 0.000000
		CHANNELS 3 Zrotation Yrotation Xrotation
		JOINT LeftUpLeg
		{
			OFFSET 1.800000 -1.400000 0.085000
			CHANNELS 3 Zrotation Yrotation Xrotation
			JOINT LeftLeg
			{
				OFFSET 2.215000 -6.000000 0.000000
				CHANNELS 3 Zrotation Yrotation Xrotation
				JOINT LeftFoot
				{
					OFFSET 2.500000 -6.900000 0.000000
					CHANNELS 3 Zrotation Yrotation Xrotation
					JOINT LeftToeBase
					{
						OFFSET 0.200000 -0.500000 1.950000
						CHANNELS 3 Zrotation Yrotation Xrotation
						End Site
						{
							OFFSET 0.000000 0.000000 0.000000
						}
					}
				}
			}
		}
	}
	JOINT RHipJoint
	{
		OFFSET 0.000000 0.000000 0.000000
		CHANNELS 3 Zrotation Yrotation Xrotation
		JOINT RightUpLeg
		{
			OFFSET -1.800000 -1.400000 0.085000
			CHANNELS 3 Zrotation Yrotation Xrotation
			JOINT RightLeg
			{
				OFFSET -2.215000 -6.000000 0.000000
				CHANNELS 3 Zrotation Yrotation Xrotation
				JOINT RightFoot
				{
					OFFSET -2.500000 -6.900000 0.000000
					CHANNELS 3 Zrotation Yrotation Xrotation
					JOINT RightToeBase
					{
						OFFSET -0.200000 -0.500000 1.950000
						CHANNELS 3 Zrotation Yrotation Xrotation
						End Site
						{
							OFFSET 0.000000 0.000000 0.000000
						}
					}
				}
			}
		}
	}
	JOINT LowerBack
	{
		OFFSET 0.000000 0.000000 0.000000
		CHANNELS 3 Zrotation Yrotation Xrotation
		JOINT Spine
		{
			OFFSET -0.087000 1.940000 -0.288900
			CHANNELS 3 Zrotation Yrotation Xrotation
			JOINT Spine1
			{
				OFFSET 0.000000 1.950000 0.060000
				CHANNELS 3 Zrotation Yrotation Xrotation
				JOINT Neck
				{
					OFFSET 0.000000 0.000000 0.000000
					CHANNELS 3 Zrotation Yrotation Xrotation
					JOINT Neck1
					{
						OFFSET 0.000000 1.600000 0.340000
						CHANNELS 3 Zrotation Yrotation Xrotation
						JOINT Head
						{
							OFFSET 0.000000 1.667000 -0.240000
							CHANNELS 3 Zrotation Yrotation Xrotation
							End Site
							{
								OFFSET 0.000000 0.000000 0.000000
							}
						}
					}
				}
				JOINT LeftShoulder
				{
					OFFSET 0.000000 0.000000 0.000000
					CHANNELS 3 Zrotation Yrotation Xrotation
					JOINT LeftArm
					{
						OFFSET 2.700000 1.550000 -0.730000
						CHANNELS 3 Zrotation Yrotation Xrotation
						JOINT LeftForeArm
						{
							OFFSET 5.450000 0.000000 0.000000
							CHANNELS 3 Zrotation Yrotation Xrotation
							JOINT LeftHand
							{
								OFFSET 3.450000 0.000000 0.000000
								CHANNELS 3 Zrotation Yrotation Xrotation
								JOINT LeftHandIndex1
								{
									OFFSET 0.750000 0.000000 0.000000
									CHANNELS 3 Zrotation Yrotation Xrotation
									End Site
									{
										OFFSET 0.000000 0.000000 0.000000
									}
								}
							}
						}
					}
				}
				JOINT RightShoulder
				{
					OFFSET 0.000000 0.000000 0.000000
					CHANNELS 3 Zrotation Yrotation Xrotation
					JOINT RightArm
					{
						OFFSET -2.700000 1.550000 -0.730000
						CHANNELS 3 Zrotation Yrotation Xrotation
						JOINT RightForeArm
						{
							OFFSET -5.450000 0.000000 0.000000
							CHANNELS 3 Zrotation Yrotation Xrotation
							JOINT RightHand
							{
								OFFSET -3.450000 0.000000 0.000000
								CHANNELS 3 Zrotation Yrotation Xrotation
								JOINT RightHandIndex1
								{
									OFFSET -0.750000 0.000000 0.000000
									CHANNELS 3 Zrotation Yrotation Xrotation
									End Site
									{
										OFFSET 0.000000 0.000000 0.000000
									}
								}
							}
						}
					}
				}
			}
		}
	}
}
MOTION
Frames: 5
Frame Time: 0.016667
-0.659440 15.662790 -4.805800 1.614169 -3.198997 -19.414333 -15.051209 10.763283 4.362374 37.294246 -3.192957 -19.236523 -12.857072 24.321526 59.465839 1.976714 12.570197 -0.094346 0.536810 0.747110 0.608880 18.869072 -9.730632 3.256080 -39.454277 -0.537812 -33.363464 1.386872 -19.274821 65.573056 -2.016141 -10.591095 0.159032 -0.027490 -0.608750 0.378640 -4.623540 0.326323 -9.238719 48.595119 -16.943154 33.870269 -17.085104 -3.229807 6.442625 3.988980 8.870760 -16.615882 27.149499 -20.231917 51.144396 11.764570 -5.493670 -25.957220 -9.146953 -16.448304 9.122898 -32.396960 6.998960 -11.930333 28.464510 -30.234631 -6.655789 -2.854961 3.257090 0.646990 -0.612030 1.003730 -0.007180 -0.849220 13.893108 11.421265 77.590116 12.944090 -18.567332 30.240262 59.130787 4.644022 2.844788 -1.676202 0.449870 -0.255910 -0.412790 0.149170 
-0.660220 15.691400 -4.772420 1.611944 -3.079782 -19.341626 -15.031467 10.801264 4.317317 37.365259 -3.068077 -18.335724 -13.335152 24.244604 58.164443 1.806354 12.591011 -0.115061 0.397280 0.514460 0.574600 18.871396 -9.829406 3.211026 -39.244007 -0.605188 -32.937024 1.263091 -19.063229 64.921269 -1.919480 -10.489393 0.148990 -0.095490 -0.541410 0.363770 -4.650119 0.432772 -9.201447 48.735194 -16.436788 33.036950 -17.165365 -2.874381 5.675034 3.674783 9.177282 -16.371296 27.423250 -20.741618 49.096785 11.752520 -6.029500 -25.742010 -8.667295 -15.575002 8.700201 -32.465681 6.254717 -11.430311 27.587856 -30.386786 -6.538214 -2.971661 3.148069 0.715740 -0.573360 0.908560 -0.110770 -0.863961 12.761839 11.416926 78.026437 12.086733 -18.469447 30.828852 58.504282 5.155523 2.786945 -1.588680 0.324160 -0.214670 -0.266170 0.061850 
-0.668510 15.759940 -4.707660 1.417626 -3.104148 -18.839193 -15.007830 10.923560 4.210329 37.523451 -2.483231 -16.947193 -13.467945 23.699899 55.779047 1.664848 12.361535 -0.066558 0.291950 0.328710 0.549990 18.860547 -9.967482 3.170903 -38.686988 -0.483373 -32.250163 1.686082 -18.982575 63.607766 -1.816583 -10.356512 0.151226 -0.170220 -0.512550 0.383650 -4.662132 0.533169 -9.140448 48.825273 -15.261103 31.243371 -16.955323 -2.188354 4.454488 3.089547 9.726600 -16.455282 28.136413 -21.076532 45.677812 10.481890 -6.370170 -23.861950 -7.542473 -14.565719 8.479718 -33.433665 5.851425 -10.866404 25.847185 -29.969347 -5.905147 -3.064021 3.150381 0.732890 -0.533900 0.835520 -0.180890 -1.308476 11.495611 11.676969 78.684190 10.656736 -18.473293 30.336128 58.031960 5.244309 2.748998 -1.579394 0.264720 -0.254800 -0.174070 0.004940 
-0.674070 15.850850 -4.629840 1.403083 -3.010799 -17.146195 -14.983376 11.039576 4.089637 37.284319 -1.639528 -15.983741 -13.693328 22.985987 52.529975 1.551188 11.950277 0.048780 0.273760 0.235780 0.581950 18.851621 -10.088545 3.177068 -38.210501 -0.423784 -32.067936 2.168090 -18.819461 61.678829 -1.719290 -10.147467 0.178897 -0.218140 -0.531120 0.429100 -4.675459 0.666954 -9.091412 48.259521 -13.118028 28.117304 -16.238859 -1.232815 2.964150 2.666685 10.302732 -16.601762 28.548112 -21.813655 41.280114 7.343980 -6.984650 -21.669380 -7.160141 -13.664526 8.436625 -34.358701 6.574363 -10.667171 24.037745 -30.877158 -5.428402 -3.084039 3.244353 0.715390 -0.511820 0.796140 -0.199670 -1.434857 10.563745 11.818186 78.627846 9.627940 -17.698885 27.016211 55.586426 3.880765 2.737000 -1.618052 0.267950 -0.345220 -0.166880 -0.026960 
-0.679520 15.958890 -4.538440 1.188241 -2.446269 -14.452187 -14.934122 11.180111 3.884160 36.390128 -0.883652 -15.975549 -12.467392 21.452924 49.626829 1.463045 11.305625 0.281385 0.262540 0.212550 0.571230 18.862680 -10.261292 3.213261 -37.419505 -0.686211 -32.214276 2.781437 -18.687836 59.042358 -1.593349 -9.867362 0.284827 -0.243200 -0.511470 0.441410 -4.746103 0.888335 -9.006680 48.001494 -10.556856 23.261100 -15.798923 -0.240186 1.276653 2.297240 10.961247 -16.475841 28.318879 -22.043347 35.966290 3.882720 -7.588750 -18.137530 -7.186783 -12.525037 8.298677 -35.432696 7.054957 -10.339989 21.527271 -31.660252 -4.619413 -3.096474 3.326174 0.621720 -0.456560 0.743430 -0.160490 -1.356034 9.235522 11.829393 79.187715 7.996599 -16.725251 23.307390 52.765270 2.538910 2.740177 -1.677936 0.291090 -0.408860 -0.215760 -0.000010 
